<?xml version="1.0" encoding="utf-8"?>
<!-- Uploaded to: SVG Repo, www.svgrepo.com, Generator: SVG Repo Mixer Tools -->
<svg width="800px" height="800px" viewBox="0 0 1024 1024" class="icon"  version="1.1" xmlns="http://www.w3.org/2000/svg"><path d="M663.202417 73.47432c-185.619335-30.163142-345.716012 159.323263-293.897281 343.395771-1.546828-1.546828-47.951662-12.374622-75.794562-8.507553-28.616314 3.867069-61.099698 24.749245-81.981873 46.404834-44.858006 43.311178-71.154079 120.652568-62.646526 182.525679 6.187311 66.513595 38.670695 155.456193 106.731118 178.658611 38.670695 13.148036 88.942598 3.093656 129.160121-6.960725l61.099698-21.65559c22.429003 1.546828 44.858006 13.148036 68.060423 18.561934 78.888218 14.694864 198.767372-51.045317 252.13293-107.504532 81.981873-88.169184 119.10574-200.314199 121.425982-321.740181 1.546828-143.081571-77.34139-282.296073-224.29003-303.178248z" fill="#1ca538" /><path d="M660.108761 307.818731c-85.075529 12.374622-141.534743 109.05136-141.534743 191.033233 0 16.241692 2.320242 32.483384 3.86707 48.725075 2.320242 16.241692 3.867069 31.70997 3.867069 46.404834 0 5.413897 0 10.827795-0.773414 17.015106-2.320242 19.335347-10.054381 37.897281-19.335347 55.6858-1.546828-25.522659-10.054381-50.271903-20.882175-68.060423-25.522659-43.311178-71.154079-71.927492-113.691843-71.154078-35.577039 0.773414-64.966767 20.882175-84.302115 56.459214-20.108761 40.217523-21.655589 95.903323 14.694864 121.425982 19.335347 13.148036 39.444109 14.694864 54.912387 3.86707 17.78852-12.374622 26.296073-38.670695 20.882175-63.41994-0.773414-3.867069-4.640483-6.960725-9.280967-6.960725-3.867069 0-7.734139 3.093656-8.507553 7.734139-2.320242 14.694864-10.054381 20.882175-17.015106 20.108761-6.960725 0-14.694864-7.734139-15.468278-22.429003 0-14.694864 9.280967-38.670695 23.975831-44.858006 13.92145-5.413897 28.616314-0.773414 37.897281 4.640484 18.561934 9.280967 34.030211 27.8429 38.670695 44.858006v0.773414c3.867069 11.601208 6.187311 23.975831 6.187311 37.123867 0 16.241692-3.093656 34.030211-8.507553 51.818731-6.187311 17.015106-13.148036 32.483384-20.108761 47.951662-16.241692 37.123867-31.70997 72.700906-31.70997 116.012084 0 13.148036 1.546828 26.296073 4.640484 40.990937 0 0.773414 0.773414 1.546828 0.773414 2.320241l7.734139 14.694864c0.773414 1.546828 1.546828 2.320242 3.093655 3.093656 12.374622 22.429003 71.927492 30.936556 126.066465 27.8429 41.76435-2.320242 112.145015-12.374622 122.97281-40.217522l0.773414-0.773414c1.546828-1.546828 1.546828-3.867069 1.546828-5.413898 0-0.773414 0-2.320242-0.773414-3.093655-6.960725-17.015106-13.148036-37.123867-18.561934-55.685801-12.374622-38.670695-18.561934-72.700906-18.561933-107.504531 0-29.389728 4.640483-58.779456 13.148036-92.036254l5.413897-17.78852c10.827795-37.123867 23.202417-78.114804 23.202417-117.558912 0-10.827795-0.773414-20.882175-3.093655-31.70997-2.320242-11.601208-5.413897-23.202417-8.507553-35.577039-6.187311-21.655589-11.601208-43.311178-11.601209-64.193354 0-17.015106 3.867069-33.256798 15.468278-47.178248 15.468278-17.78852 52.592145-33.256798 75.794562-23.97583 10.827795 4.640483 17.015106 13.92145 18.561934 26.296072 0.773414 11.601208-3.867069 22.429003-10.827795 27.069487-7.734139 5.413897-17.015106 2.320242-23.202417-1.546828-3.867069-2.320242-8.507553-1.546828-10.827794 2.320241-3.093656 3.093656-3.093656 7.734139-0.773414 10.827795 20.108761 27.069486 40.990937 20.882175 48.725075 17.015106 23.202417-11.601208 35.577039-47.178248 27.069487-75.021148-15.468278-40.217523-61.873112-52.592145-102.090635-47.951662z" fill="#65320b" /><path d="M752.918429 359.637462c-13.148036-37.897281-57.232628-47.178248-91.26284-42.537764-81.208459 12.374622-133.800604 109.05136-133.800604 185.619335 0 37.897281 11.601208 77.34139 7.734139 115.238671-4.640483 36.350453-24.749245 69.607251-40.990937 101.31722 11.601208-34.803625 3.093656-80.435045-14.694864-110.598187-40.990937-72.700906-138.441088-101.317221-182.525679-15.468278C281.135952 626.465257 274.94864 680.60423 308.978852 705.353474c40.990937 28.616314 70.380665-12.374622 61.873112-51.045317-6.187311 39.444109-47.178248 37.897281-50.271904-3.093655 0-17.78852 10.054381-47.178248 29.389729-54.138973 35.577039-13.92145 79.661631 22.429003 88.169184 55.6858 10.054381 30.163142 7.734139 64.966767-3.093656 96.676737-24.749245 71.154079-64.966767 122.199396-47.178248 204.181269l7.734139 15.468278h1.546828c3.867069 17.78852 55.685801 30.163142 119.10574 27.069487 63.41994-3.093656 113.691843-20.108761 116.012085-37.897281h1.546828c-7.734139-17.78852-13.148036-37.897281-19.335348-57.232629-23.202417-74.247734-24.749245-133.02719-6.187311-208.821752 14.694864-52.592145 35.577039-113.691843 24.749245-166.283988-8.507553-50.271903-39.444109-112.145015-3.093656-157.003021 17.78852-20.882175 58.779456-37.897281 85.075529-27.069486 44.084592 19.335347 22.429003 95.129909-23.202417 69.60725 34.803625 46.404834 72.700906-12.374622 61.099698-51.818731z" fill="#65320b" /></svg>