<?xml version="1.0" encoding="utf-8"?>
<!-- Uploaded to: SVG Repo, www.svgrepo.com, Generator: SVG Repo Mixer Tools -->
<svg width="800px" height="800px" viewBox="0 0 1024 1024" class="icon"  version="1.1" xmlns="http://www.w3.org/2000/svg"><path d="M529.401813 840.700906L520.89426 840.700906 509.293051 967.540785 538.682779 976.048338Z" fill="#65320b" /><path d="M519.347432 873.957704c0 0 116.785498-95.903323 116.785499-263.734139C636.906344 442.392749 522.441088 53.365559 517.800604 53.365559c-4.640483 0-106.731118 401.401813-106.731118 557.63142C411.069486 766.453172 519.347432 873.957704 519.347432 873.957704" fill="#148d13" /><path d="M517.800604 174.791541c0 0-68.833837 225.836858-68.833837 305.498489 0 80.435045 56.459215 129.160121 56.459215 129.160121s86.622356-49.498489 75.794562-146.175227C571.166163 368.145015 517.800604 174.791541 517.800604 174.791541" fill="#1ca538" /></svg>