<?xml version="1.0" encoding="utf-8"?>
<!-- Uploaded to: SVG Repo, www.svgrepo.com, Generator: SVG Repo Mixer Tools -->
<svg width="800px" height="800px" viewBox="0 0 1024 1024" class="icon"  version="1.1" xmlns="http://www.w3.org/2000/svg"><path d="M696.459215 415.323263c30.936556-19.335347 55.685801-64.193353 47.951661-119.879154-21.655589-146.94864-141.534743-160.870091-139.214501-167.057402C614.477341 95.903323 592.048338 23.202417 501.558912 17.78852c-98.223565-6.187311-108.277946 119.879154-111.371601 119.879154-13.148036 0-95.129909 36.350453-116.785498 143.081571-21.655589 104.410876 32.483384 139.214502 30.936556 140.761329-10.827795 10.054381-81.981873 83.528701-70.380665 153.909366 11.601208 70.380665 58.779456 134.574018 266.054381 134.574018 0 0 273.78852 4.640483 290.030211-122.97281 17.015106-129.160121-103.637462-165.510574-93.583081-171.697885z" fill="#148d13" /><path d="M473.716012 993.063444l11.601209-379.746223v-4.640484l-170.151058-94.356495 170.151058 70.380664v-6.187311l1.546827-136.120846v-4.640483L361.570997 338.755287 486.864048 419.963746v-6.187311l3.093656-188.712991 4.640483 203.407855v6.187311L599.782477 340.302115 496.145015 463.274924v6.187312l1.546828 116.012084v4.640484l211.141994-99.770393-210.36858 126.066465v6.187311l14.694864 370.465257h-39.444109z" fill="#824522" /></svg>