<?xml version="1.0" encoding="utf-8"?>
<!-- Uploaded to: SVG Repo, www.svgrepo.com, Generator: SVG Repo Mixer Tools -->
<svg width="800px" height="800px" viewBox="0 0 1024 1024" class="icon"  version="1.1" xmlns="http://www.w3.org/2000/svg"><path d="M817.885196 372.012085c0.773414-75.794562-60.326284-137.667674-136.120846-137.667674-20.882175 0-40.217523 4.640483-58.006042 12.374622 10.827795-19.335347 17.015106-41.76435 17.015106-64.966767 0.773414-75.794562-60.326284-137.667674-135.347432-138.441088-75.794562-0.773414-137.667674 60.326284-137.667674 136.120846 0 20.108761 3.867069 39.444109 11.601209 56.459215-10.827795-3.093656-22.429003-4.640483-34.803626-4.640484-75.794562-0.773414-137.667674 60.326284-137.667673 136.120846 0 51.045317 27.069486 95.129909 68.060422 119.10574-28.616314 24.749245-47.178248 61.099698-47.178247 102.090635-0.773414 75.794562 59.55287 137.667674 135.347432 138.441087 52.592145 0 98.996979-29.389728 122.199396-72.700906 3.867069-6.960725 6.960725-14.694864 9.280966-22.429003 4.640483 2.320242 9.280967 3.093656 13.92145 3.86707 4.640483 13.92145 11.601208 27.8429 20.882176 39.444108 24.749245 32.483384 64.193353 53.365559 107.504531 54.138973 75.794562 0.773414 137.667674-60.326284 137.667674-136.120846 0-37.897281-14.694864-71.927492-39.444109-96.676737 48.725076-21.655589 81.981873-68.833837 82.755287-124.519637z" fill="#148d13" /><path d="M531.722054 657.401813l19.335348 305.498489-78.114804-0.773414 14.694864-325.607251c3.867069-6.960725 6.960725-14.694864 9.280967-22.429003 4.640483 2.320242 9.280967 3.093656 13.92145 3.86707 4.640483 13.92145 11.601208 27.069486 20.882175 39.444109z" fill="#65320b" /></svg>