<?xml version="1.0" encoding="utf-8"?>
<!-- Uploaded to: SVG Repo, www.svgrepo.com, Generator: SVG Repo Mixer Tools -->
<svg width="800px" height="800px" viewBox="0 0 1024 1024" class="icon"  version="1.1" xmlns="http://www.w3.org/2000/svg"><path d="M465.208459 548.350453c3.867069 125.293051-11.601208 262.960725-34.803625 388.253777 37.897281-7.734139 72.700906-3.867069 106.731118 11.601208-27.069486-133.800604-49.498489-266.827795-37.897281-404.495468l-34.030212 4.640483z" fill="#65320b" /><path d="M804.73716 347.26284c0-44.084592-34.803625-79.661631-77.34139-79.661632-6.960725 0-13.92145 0.773414-20.108761 3.093656 10.827795-11.601208 17.015106-27.069486 17.015106-44.084592 0-35.577039-28.616314-64.966767-63.41994-64.966767-12.374622 0-24.749245 3.867069-34.030211 10.827794-9.280967-23.975831-31.70997-41.76435-58.779456-41.76435-3.093656 0-5.413897 0-7.734139 0.773414-6.960725-27.8429-31.70997-47.951662-61.099698-47.951662-34.030211 0-61.873112 27.8429-62.646526 61.873112-10.827795-9.280967-24.749245-14.694864-40.217523-14.694864-34.803625 0-63.41994 29.389728-63.419939 64.966767 0 13.92145 3.867069 26.296073 11.601208 37.123867-34.803625 0-62.646526 29.389728-62.646525 64.966767 0 13.92145 4.640483 27.069486 11.601208 37.897281-26.296073 7.734139-46.404834 32.483384-46.404834 62.646526 0 21.655589 10.054381 40.990937 26.296073 52.592145-10.827795 11.601208-17.78852 27.069486-17.78852 44.858006 0 35.577039 28.616314 64.966767 63.41994 64.966768 16.241692 0 30.936556-6.187311 42.537764-17.015106 13.148036 24.749245 38.670695 41.76435 68.060423 41.76435 20.882175 0 39.444109-8.507553 53.365559-22.429003 13.92145 22.429003 37.897281 37.123867 64.966767 37.123867 33.256798 0 61.873112-21.655589 72.700907-51.818731 13.92145 12.374622 31.70997 19.335347 51.045317 19.335348 42.537764 0 77.34139-35.577039 77.34139-79.661632 0-24.749245-10.827795-46.404834-27.842901-61.099698h6.187311c42.537764-0.773414 77.34139-36.350453 77.34139-79.661631z m-284.616314-32.483384c0.773414 4.640483 2.320242 9.280967 3.867069 13.148036-3.867069-1.546828-7.734139-3.093656-12.374622-3.867069 3.093656-3.093656 6.187311-6.187311 8.507553-9.280967z m129.933535 37.897281c0 1.546828 0 3.867069 0.773414 5.413897-0.773414-0.773414-2.320242-1.546828-3.86707-3.093655 1.546828 0 2.320242-0.773414 3.093656-2.320242z m22.429003-61.873112v-1.546827h1.546827c-0.773414 0.773414-0.773414 1.546828-1.546827 1.546827z m5.413897 116.785499z" fill="#1ca538" /><path d="M605.969789 521.280967c0 36.350453-28.616314 64.966767-63.41994 64.966767-34.803625 0-63.41994-29.389728-63.41994-64.966767 0-36.350453 28.616314-64.966767 63.41994-64.966768 34.803625 0 63.41994 29.389728 63.41994 64.966768z" fill="#4dba32" /><path d="M552.60423 403.722054c0 36.350453-28.616314 64.966767-63.41994 64.966768-34.803625 0-63.41994-29.389728-63.41994-64.966768 0-36.350453 28.616314-64.966767 63.41994-64.966767 34.803625 0 63.41994 28.616314 63.41994 64.966767z" fill="#4dba32" /><path d="M486.864048 506.586103c0 36.350453-28.616314 64.966767-63.419939 64.966767-34.803625 0-63.41994-29.389728-63.41994-64.966767 0-36.350453 28.616314-64.966767 63.41994-64.966768 34.803625 0 63.41994 29.389728 63.419939 64.966768z" fill="#4dba32" /><path d="M728.942598 488.797583c0 36.350453-28.616314 64.966767-63.419939 64.966767-34.803625 0-63.41994-29.389728-63.41994-64.966767 0-36.350453 28.616314-64.966767 63.41994-64.966767 34.803625 0 63.41994 29.389728 63.419939 64.966767z" fill="#4dba32" /><path d="M784.628399 348.809668c0 36.350453-28.616314 64.966767-63.41994 64.966767-34.803625 0-63.41994-29.389728-63.419939-64.966767 0-36.350453 28.616314-64.966767 63.419939-64.966768 35.577039 0 63.41994 29.389728 63.41994 64.966768z m-324.833837 37.123867c0 36.350453-28.616314 64.966767-63.41994 64.966767-34.803625 0-63.41994-29.389728-63.419939-64.966767 0-36.350453 28.616314-64.966767 63.419939-64.966768 34.803625 0 63.41994 28.616314 63.41994 64.966768z" fill="#4dba32" /><path d="M653.148036 299.311178c0 36.350453-28.616314 64.966767-63.419939 64.966768-34.803625 0-63.41994-29.389728-63.41994-64.966768 0-36.350453 28.616314-64.966767 63.41994-64.966767 34.803625-0.773414 63.41994 28.616314 63.419939 64.966767z" fill="#4dba32" /><path d="M517.02719 268.374622c0 36.350453-28.616314 64.966767-63.419939 64.966768-34.803625 0-63.41994-29.389728-63.41994-64.966768 0-36.350453 28.616314-64.966767 63.41994-64.966767 34.803625-0.773414 63.41994 28.616314 63.419939 64.966767z" fill="#4dba32" /><path d="M366.984894 494.984894c0 29.389728-23.202417 53.365559-51.818731 53.365559s-51.818731-23.975831-51.818731-53.365559c0-29.389728 23.202417-53.365559 51.818731-53.365559s51.818731 23.975831 51.818731 53.365559z" fill="#4dba32" /><path d="M658.561934 421.510574c0 36.350453-28.616314 64.966767-63.41994 64.966767-34.803625 0-63.41994-29.389728-63.41994-64.966767 0-36.350453 28.616314-64.966767 63.41994-64.966767 34.803625-0.773414 63.41994 28.616314 63.41994 64.966767z" fill="#4dba32" /><path d="M393.280967 297.76435c0 29.389728-23.202417 53.365559-51.818731 53.365559s-51.818731-23.975831-51.818731-53.365559c0-29.389728 23.202417-53.365559 51.818731-53.365558s51.818731 23.975831 51.818731 53.365558z" fill="#4dba32" /><path d="M616.797583 196.44713c0 29.389728-23.202417 53.365559-51.818731 53.365559s-51.818731-23.975831-51.818731-53.365559c0-29.389728 23.202417-53.365559 51.818731-53.365559s51.818731 23.975831 51.818731 53.365559z" fill="#4dba32" /><path d="M709.607251 227.383686c0 29.389728-23.202417 53.365559-51.818731 53.365559s-51.818731-23.975831-51.818731-53.365559c0-29.389728 23.202417-53.365559 51.818731-53.365559s51.818731 23.975831 51.818731 53.365559z" fill="#4dba32" /><path d="M547.963746 149.268882c0 29.389728-23.202417 53.365559-51.818731 53.365559s-51.818731-23.975831-51.818731-53.365559c0-29.389728 23.202417-53.365559 51.818731-53.365559s51.818731 23.975831 51.818731 53.365559z" fill="#4dba32" /><path d="M444.326284 196.44713c0 29.389728-23.202417 53.365559-51.818731 53.365559s-51.818731-23.975831-51.818731-53.365559c0-29.389728 23.202417-53.365559 51.818731-53.365559s51.818731 23.975831 51.818731 53.365559z" fill="#4dba32" /><path d="M358.477341 398.308157c0 29.389728-23.202417 53.365559-51.818731 53.365559S254.839879 427.697885 254.839879 398.308157c0-29.389728 23.202417-53.365559 51.818731-53.365559s51.818731 23.975831 51.818731 53.365559z" fill="#4dba32" /><path d="M544.096677 485.703927c10.827795 8.507553 17.78852 21.655589 17.788519 36.350454 0 14.694864-6.960725 27.8429-17.788519 36.350453 17.015106-5.413897 28.616314-20.108761 28.616314-36.350453 0.773414-16.241692-11.601208-30.163142-28.616314-36.350454z" fill="#77e340" /><path d="M491.504532 368.145015c10.827795 8.507553 17.78852 21.655589 17.788519 36.350453 0 14.694864-6.960725 27.8429-17.788519 36.350453 17.015106-5.413897 28.616314-20.108761 28.616314-36.350453s-12.374622-30.163142-28.616314-36.350453z" fill="#77e340" /><path d="M424.990937 471.009063c10.827795 8.507553 17.78852 21.655589 17.788519 36.350454 0 14.694864-6.960725 27.8429-17.788519 36.350453 17.015106-5.413897 28.616314-20.108761 28.616314-36.350453 0.773414-16.241692-11.601208-30.163142-28.616314-36.350454z" fill="#77e340" /><path d="M667.8429 453.993958c10.827795 8.507553 17.78852 21.655589 17.78852 36.350453 0 14.694864-6.960725 27.8429-17.78852 36.350453 17.015106-5.413897 28.616314-20.108761 28.616315-36.350453 0-17.015106-11.601208-30.936556-28.616315-36.350453z" fill="#77e340" /><path d="M455.154079 232.797583c10.827795 8.507553 17.78852 21.655589 17.788519 36.350453 0 14.694864-6.960725 27.8429-17.788519 36.350453 17.015106-5.413897 28.616314-20.108761 28.616314-36.350453 0.773414-16.241692-11.601208-30.163142-28.616314-36.350453z" fill="#77e340" /><path d="M315.166163 465.595166c8.507553 6.960725 13.92145 17.78852 13.92145 30.163142s-5.413897 23.202417-13.92145 30.163142c13.92145-4.640483 23.202417-16.241692 23.202417-30.163142 0-13.92145-9.280967-25.522659-23.202417-30.163142z" fill="#77e340" /><path d="M597.462236 385.933535c10.827795 8.507553 17.78852 21.655589 17.788519 36.350453 0 14.694864-6.960725 27.8429-17.788519 36.350453 17.015106-5.413897 28.616314-20.108761 28.616314-36.350453s-11.601208-30.936556-28.616314-36.350453z" fill="#77e340" /><path d="M340.688822 268.374622c8.507553 6.960725 13.92145 17.78852 13.92145 30.163142s-5.413897 23.202417-13.92145 30.163142c13.92145-4.640483 23.202417-16.241692 23.202417-30.163142 0.773414-13.92145-9.280967-25.522659-23.202417-30.163142z" fill="#77e340" /><path d="M564.205438 167.057402c8.507553 6.960725 13.92145 17.78852 13.92145 30.163142s-5.413897 23.202417-13.92145 30.163142c13.92145-4.640483 23.202417-16.241692 23.202417-30.163142 0.773414-13.92145-9.280967-25.522659-23.202417-30.163142z" fill="#77e340" /><path d="M595.915408 275.335347c8.507553 6.960725 13.92145 17.78852 13.92145 30.163142s-5.413897 23.202417-13.92145 30.163142c13.92145-4.640483 23.202417-16.241692 23.202417-30.163142 0-13.92145-9.280967-25.522659-23.202417-30.163142z" fill="#77e340" /><path d="M495.371601 119.879154c8.507553 6.960725 13.92145 17.78852 13.92145 30.163142s-5.413897 23.202417-13.92145 30.163142c13.92145-4.640483 23.202417-16.241692 23.202417-30.163142 0.773414-13.92145-9.280967-25.522659-23.202417-30.163142z" fill="#77e340" /><path d="M392.507553 167.057402c8.507553 6.960725 13.92145 17.78852 13.92145 30.163142s-5.413897 23.202417-13.92145 30.163142c13.92145-4.640483 23.202417-16.241692 23.202417-30.163142 0-13.92145-9.280967-25.522659-23.202417-30.163142z" fill="#77e340" /><path d="M397.92145 354.996979c10.827795 8.507553 17.78852 21.655589 17.78852 36.350453 0 14.694864-6.960725 27.8429-17.78852 36.350453 17.015106-5.413897 28.616314-20.108761 28.616314-36.350453s-11.601208-30.163142-28.616314-36.350453z" fill="#77e340" /><path d="M306.65861 368.145015c8.507553 6.960725 13.92145 17.78852 13.92145 30.163142s-5.413897 23.202417-13.92145 30.163142c13.92145-4.640483 23.202417-16.241692 23.202417-30.163142 0-13.92145-9.280967-25.522659-23.202417-30.163142z" fill="#77e340" /><path d="M657.78852 197.993958c8.507553 6.960725 13.92145 17.78852 13.92145 30.163142s-5.413897 23.202417-13.92145 30.163142c13.92145-4.640483 23.202417-16.241692 23.202417-30.163142 0-13.92145-9.280967-25.522659-23.202417-30.163142z" fill="#77e340" /><path d="M741.317221 302.404834c10.827795 8.507553 17.78852 21.655589 17.788519 36.350453 0 14.694864-6.960725 27.8429-17.788519 36.350453 17.015106-5.413897 28.616314-20.108761 28.616314-36.350453 0.773414-16.241692-11.601208-30.163142-28.616314-36.350453z" fill="#77e340" /></svg>