<?xml version="1.0" encoding="UTF-8"?>
<svg id="Calque_1" xmlns="http://www.w3.org/2000/svg" xmlns:xlink="http://www.w3.org/1999/xlink" version="1.1" viewBox="0 0 800 800">
  <!-- Generator: Adobe Illustrator 29.1.0, SVG Export Plug-In . SVG Version: 2.1.0 Build 142)  -->
  <defs>
    <style>
      .st0 {
        fill: #c73850;
      }

      .st1 {
        mask: url(#mask);
      }

      .st2 {
        fill: #fff;
        fill-rule: evenodd;
      }
    </style>
    <mask id="mask" x="-165.7" y="-165.7" width="1131.4" height="1131.4" maskUnits="userSpaceOnUse">
      <g id="cross-d">
        <path id="cross-c1" data-name="cross-c" class="st2" d="M433.3,433.3v155.2c0,18.4-14.9,33.3-33.3,33.3-18.4,0-33.3-14.9-33.3-33.3v-155.2h-155.2c-18.4,0-33.3-14.9-33.3-33.3,0-18.4,14.9-33.3,33.3-33.3h155.2s0-155.2,0-155.2c0-18.4,14.9-33.3,33.3-33.3,18.4,0,33.3,14.9,33.3,33.3v155.2s155.2,0,155.2,0c18.4,0,33.3,14.9,33.3,33.3,0,18.4-14.9,33.3-33.3,33.3h-155.2Z"/>
      </g>
    </mask>
  </defs>
  <path id="cross-c" d="M433.3,433.3v155.2c0,18.4-14.9,33.3-33.3,33.3-18.4,0-33.3-14.9-33.3-33.3v-155.2h-155.2c-18.4,0-33.3-14.9-33.3-33.3,0-18.4,14.9-33.3,33.3-33.3h155.2s0-155.2,0-155.2c0-18.4,14.9-33.3,33.3-33.3,18.4,0,33.3,14.9,33.3,33.3v155.2s155.2,0,155.2,0c18.4,0,33.3,14.9,33.3,33.3,0,18.4-14.9,33.3-33.3,33.3h-155.2Z"/>
  <g class="st1">
    <rect class="st0" x="0" y="0" width="800" height="800" transform="translate(-165.7 400) rotate(-45)"/>
  </g>
</svg>