<?xml version="1.0" encoding="iso-8859-1"?>
<!-- Uploaded to: SVG Repo, www.svgrepo.com, Generator: SVG Repo Mixer Tools -->
<svg height="800px" width="800px" version="1.1" id="Capa_1" xmlns="http://www.w3.org/2000/svg" xmlns:xlink="http://www.w3.org/1999/xlink" 
	 viewBox="0 0 242 242" xml:space="preserve">
<g>
	<g>
		<path style="fill:#fff;" d="M103.712,11.283L103.712,11.283L103.712,11.283z"/>
		<path style="fill:#fff;" d="M230.665,98.133c-10.337,0.607-14.017-15.24-20.043-20.33c5.599-3.157,8.548-11.31,14.823-13.947
			c3.509-1.474,8.365-0.663,11.328-3.772c-16.469-1.27-21.269,11.654-31.668,17.428c-4.938-0.043-9.422-0.207-14.231-1.165
			c-1.781,1.733-2.193,6.313-4.652,6.396c-0.206-2.193-0.512-4.573,0-6.684c4.984-4.709,10.833-10.077,9.296-20.335
			c-2.816,2.85-1.223,6.768-3.777,10.453c-2.011,2.9-8.334,3.796-9.878,6.976c-1.886,3.896-0.567,14.675-2.319,19.753
			c-1.136,3.273-7.616,7.791-9.871,9.88c-2.807,2.579-5.967,9.351-9.889,10.169c-3.736,0.782-7.488-1.434-11.904-1.742
			c-2.963,2.264-5.801,6.212-9.012,7.26c5.072-16.634-7.703-25.76-9.296-40.094c-0.416-3.704,0.175-8.039-0.282-11.905
			c-1.83-1.125-4.359-2.964-6.104-3.188c0.83,2.924,5.717,5.979,2.027,10.444c-7.15,0.6-11.669-6.275-17.425-6.093
			c-4.856,0.155-9.09,6.642-13.363,8.711c4.139-0.414,7.695-3.916,11.612-5.52c4.905,2.749,12.219,3.088,17.432,5.52
			c0.987,3.087,2.364,5.767,3.493,8.719c-3.596,0.575-7.073,1.167-10.762,0.289c-2.452,6.154-7.938,9.29-13.064,12.777
			c2.033,0.717,3.672-1.309,6.102-1.16c0,2.044,0.167,4.226-0.866,5.229c-0.183-0.694,0.354-2.106-0.301-2.327
			c-2.048,6.875,3.558,11.117,6.102,15.981c-0.157-6.772-5.202-21.432,3.485-26.72c4.069-0.655,9.005,0.013,11.63-0.289
			c2.287,7.225,6.049,13.774,5.511,21.773c-0.292,4.447-3.169,6.079-4.935,9.597c-2.727,5.401-4.062,7.702-8.138,12.781
			c-1.397,1.75-5.961,8.151-6.677,8.13c-1.611-0.043-3.422-5.19-3.784-5.514c-4.297-3.91-12.846-4.352-15.974-8.428
			c-1.285-1.68-2.367-5.944-3.484-9.003c-1.175-3.241-3.47-6.677-3.768-9.01c-0.625-4.691,1.803-11.087,1.733-16.268
			c-0.166-11.759-8.806-24.372-6.096-36.311c1.301-5.774,6.632-11.155,9.873-15.398c3.855-5.038,8.221-9.14,11.619-13.652
			c-0.054-5.579,0.05-11.81-0.583-15.98c-0.37-0.012-0.409-0.37-0.874-0.281c0.621,20.081-14.829,25.646-21.776,37.178
			c3.155-7.667-1.403-13.139-5.81-17.139c-0.047,3.512,3.602,6.623,4.066,10.454c0.618,5.2-2.505,10.625-2.624,16.27
			c-0.301,14.447,9.271,30.713,2.911,44.74c-1.973-2.246-0.687-5.133-1.744-8.129c-0.599-1.687-2.57-2.61-2.909-4.359
			c-0.599-3.146,1.338-6.745,0.874-9.882c-0.379-2.533-3.288-4.453-3.776-6.973c-0.859-4.397,1.765-8.292,1.75-12.489
			c-3.321,2.396-3.485,7.955-4.942,12.201c3.355,4.197,4.564,10.442,2.608,17.144c-7.749,0.302-9.88-5.03-14.232-8.137
			c-4.129,0.329-9.548,1.025-14.521,0.872c2.696,3.736,9.231,2.046,14.229,3.196c3.438,3.727,6.774,7.562,13.646,7.845
			c3.737,6.436,5.486,16.393,9.297,21.785c-6.016,0.213-5.236-7.917-11.322-6.684c2.973,1.402,2.973,4.743,4.927,7.267
			c1.91,2.445,6.128,2.555,8.729,4.653c4.911,3.949,5.243,11.062,8.713,16.848c-11.653,2.531-22.48,13.327-34.274,4.945
			c-4.383-9.865-12.857-15.619-15.688-27.029c-0.736,3.557,0.447,6.692,0.576,10.753c2.205,4.66,7.275,6.467,8.134,12.489
			c-2.579-4.446-8.791-9.499-11.329-15.391c-1.229-2.861-2.998-12.202-2.326-15.689c1.01-5.273,8.729-7.363,10.162-13.085
			c-3.28,4.421-13.168,5.919-13.946,12.21c-0.599,4.975,2.269,9.997,0.299,14.532c-4.014-8.515-9.375-13.262-8.719-24.409
			c0.323-5.429,4.147-11.757,0.874-18.018c-2.009,8.692-4.484,17.3-3.485,26.735c-7.245-4.563-16.676,0.617-22.083,4.636
			c7.538,0.332,12.782-5.762,20.924-2.601c9.006,13.835,16.866,28.833,28.771,39.801c-4.984,8.436-16.478,8.594-27.902,10.455
			c5.371,4.176,12.135-1.334,18.016,1.742c-0.221,4.248-5.361,3.996-6.102,7.261c-1.08,4.714,3.981,9.777,2.609,16.265
			c1.616-4.512,0.853-10.762,0.868-15.098c6.96-4.764,8.261-15.192,17.148-18.025c4.287,1.246,8.324,2.737,12.204,4.362
			c-5.314,5.801-7.602,17.148-4.353,26.735c-0.103-8.618-0.915-16.307,4.061-21.219c3.415-3.373,9.722-5.322,14.232-7.545
			c4.618-2.293,10.043-7.292,14.529-7.552c4.864-0.284,12.132,6.528,15.098,11.331c3.35,5.398,8.696,17.098,8.135,25.85
			c-0.18,2.77-3.223,5.307-4.366,8.139c-1.442,3.641-4.779,9.255-5.221,13.938c-0.299,3.328,0.851,7.216,0.293,10.756
			c-0.797,5.083-5.301,12.852-8.42,14.815c-0.49,0.304-1.061,0.522-1.682,0.699h30.259c0.43-1.85,0.92-3.687,1.042-5.645
			c0.206-3.146-1.252-6.228-0.858-9.003c0.599-4.307,5.621-6.427,6.678-10.172c0.041-8.773,3.202-14.412,6.67-19.757
			c9.028-4.384,23.086-3.771,33.121-6.386c4.329,3.24,7.594,7.52,11.913,10.754c1.285,4.857,4.251,9.452,5.229,13.647
			c1.284-4.778-1.987-11.464-2.025-17.718c-3.753-3.226-7.593-6.346-10.745-10.17c-2.62-0.867-6.617-0.362-9.305-1.159
			c4.328-5.888,21.16-6.079,29.053-4.652c6.479,1.184,7.623,8.69,12.488,10.464c-1.914-4.565-5.197-7.783-6.963-12.488
			c-4.381-1.049-9.01-1.854-13.662-2.619c5.723-4.736,13.324-9.145,13.079-18.881c-4.596,7.409-9.786,14.435-17.725,18.59
			c-3.657,1.914-9.263,0.207-14.238,1.45c-3.925,0.995-7.055,6.237-11.911,7.847c-5.307,1.773-11.465,0.557-17.725,0.582
			c-0.933-2.648-2.445-4.73-5.52-5.227c0.142-7.953-6.409-14.231-6.379-21.794c0.01-4.494,3.393-13.845,5.22-17.423
			c1.712-3.336,8.271-10.645,11.622-11.331c5.922-1.229,10.682,0.804,15.406-1.168c4.668-1.96,6.219-8.782,11.322-10.745
			c2.789,1.666,6.07,2.839,7.562,5.803c-1.934,6.796-1.112,16.328-8.433,17.725c-0.811,2.878-2.252,5.108-2.907,8.137
			c2.798-3.786,6.143-9.557,11.904-11.331c0.624-5.189,1.999-9.642,4.37-13.072c5.811,0.946,10.444-2.302,14.807-0.875
			c5.914,1.934,6.834,9.814,9.305,14.524c1.71-9.651-5.056-13.35-8.423-18.882c-3.783,0.559-8.475,2.223-12.786,1.167
			c-3.566-0.87-9.606-4.717-10.162-7.271c-0.924-4.155,4.271-9.149,6.093-11.906c2.761-4.175,5.155-6.84,7.261-10.747
			c4.598,0.957,9.793,0.154,13.664,0.289c6.986,0.827,8.263,14.948,13.057,17.729c2.538,1.448,9.246,2.113,11.629,1.726
			c5.275-0.822,8.925-7.81,10.171-11.607C238.637,92.238,236.059,97.827,230.665,98.133z"/>
	</g>
</g>
</svg>