<?xml version="1.0" ?>

<!-- Uploaded to: SVG Repo, www.svgrepo.com, Generator: SVG Repo Mixer Tools -->
<svg width="800px" height="800px" viewBox="0 0 24 24" version="1.1" xml:space="preserve" xmlns="http://www.w3.org/2000/svg" xmlns:xlink="http://www.w3.org/1999/xlink">
<path fill="#fff" d="M5,20c-0.6,0-1,0.4-1,1s0.4,1,1,1h3h3h2h3h3c0.6,0,1-0.4,1-1s-0.4-1-1-1h-2.2l-1.7-10C15.6,9.9,16,9.5,16,9   c0-0.6-0.4-1-1-1V6.5c0-1.2-0.9-2.2-2-2.5V3c0-0.6-0.4-1-1-1s-1,0.4-1,1v1.1C9.9,4.3,9,5.3,9,6.5V8C8.4,8,8,8.4,8,9   c0,0.5,0.4,0.9,0.8,1L7.2,20H5z M11,6.5C11,6.2,11.2,6,11.5,6h1C12.8,6,13,6.2,13,6.5V8h-2V6.5z M10.8,10h2.3l1.7,10H14v-1   c0-1.1-0.9-2-2-2s-2,0.9-2,2v1H9.2L10.8,10z"/>
</svg>